<svg xmlns="http://www.w3.org/2000/svg" xmlns:xlink="http://www.w3.org/1999/xlink" width="900" zoomAndPan="magnify" viewBox="0 0 675 1087.499972" height="1450" preserveAspectRatio="xMidYMid meet" version="1.2"><defs><clipPath id="ffc5e25265"><path d="M 0.15625 0 L 674.84375 0 L 674.84375 1087 L 0.15625 1087 Z M 0.15625 0 "/></clipPath><clipPath id="77aaca81a4"><path d="M 0.15625 944.886719 L 674.84375 944.886719 L 674.84375 1087 L 0.15625 1087 Z M 0.15625 944.886719 "/></clipPath><clipPath id="1f96ba3c60"><path d="M 307.953125 915.339844 L 367.046875 915.339844 L 367.046875 974.4375 L 307.953125 974.4375 Z M 307.953125 915.339844 "/></clipPath><clipPath id="254b18134d"><path d="M 337.5 915.339844 C 321.179688 915.339844 307.953125 928.570312 307.953125 944.886719 C 307.953125 961.207031 321.179688 974.4375 337.5 974.4375 C 353.820312 974.4375 367.046875 961.207031 367.046875 944.886719 C 367.046875 928.570312 353.820312 915.339844 337.5 915.339844 Z M 337.5 915.339844 "/></clipPath><clipPath id="758be8be3e"><path d="M 320.925781 928.480469 L 354.128906 928.480469 L 354.128906 958.347656 L 320.925781 958.347656 Z M 320.925781 928.480469 "/></clipPath><clipPath id="d884a2943e"><path d="M 340.105469 956.742188 L 353.652344 933.035156 C 354.1875 932.09375 354.183594 930.933594 353.640625 929.996094 C 353.09375 929.054688 352.09375 928.480469 351.007812 928.480469 L 323.992188 928.480469 C 322.90625 928.480469 321.90625 929.054688 321.359375 929.996094 C 320.816406 930.933594 320.8125 932.09375 321.347656 933.035156 L 334.894531 956.742188 C 335.429688 957.675781 336.425781 958.253906 337.5 958.253906 C 338.574219 958.253906 339.570312 957.675781 340.105469 956.742188 Z M 340.105469 956.742188 "/></clipPath><clipPath id="23fa7f833f"><path d="M 188.097656 0 L 674.84375 0 L 674.84375 590.726562 L 188.097656 590.726562 Z M 188.097656 0 "/></clipPath><clipPath id="8445a23c83"><path d="M 558.996094 -151.066406 C 354.15625 -151.066406 188.097656 14.988281 188.097656 219.828125 C 188.097656 424.667969 354.15625 590.726562 558.996094 590.726562 C 763.835938 590.726562 929.890625 424.667969 929.890625 219.828125 C 929.890625 14.988281 763.835938 -151.066406 558.996094 -151.066406 Z M 558.996094 -151.066406 "/></clipPath></defs><g id="cd2c9d3820"><g clip-rule="nonzero" clip-path="url(#ffc5e25265)"><path style=" stroke:none;fill-rule:nonzero;fill:#ffffff;fill-opacity:1;" d="M 0.15625 0 L 674.84375 0 L 674.84375 1087 L 0.15625 1087 Z M 0.15625 0 "/><path style=" stroke:none;fill-rule:nonzero;fill:#00bf63;fill-opacity:1;" d="M 0.15625 0 L 674.84375 0 L 674.84375 1087 L 0.15625 1087 Z M 0.15625 0 "/></g><g clip-rule="nonzero" clip-path="url(#77aaca81a4)"><path style=" stroke:none;fill-rule:nonzero;fill:#f2f7f7;fill-opacity:1;" d="M -401.847656 944.886719 L 1076.238281 944.886719 L 1076.238281 1334.179688 L -401.847656 1334.179688 Z M -401.847656 944.886719 "/></g><g clip-rule="nonzero" clip-path="url(#1f96ba3c60)"><g clip-rule="nonzero" clip-path="url(#254b18134d)"><path style=" stroke:none;fill-rule:nonzero;fill:#f2f7f7;fill-opacity:1;" d="M 307.953125 915.339844 L 367.046875 915.339844 L 367.046875 974.4375 L 307.953125 974.4375 Z M 307.953125 915.339844 "/></g></g><g clip-rule="nonzero" clip-path="url(#758be8be3e)"><g clip-rule="nonzero" clip-path="url(#d884a2943e)"><path style=" stroke:none;fill-rule:nonzero;fill:#00bf63;fill-opacity:1;" d="M 318.746094 928.480469 L 356.308594 928.480469 L 356.308594 961.296875 L 318.746094 961.296875 Z M 318.746094 928.480469 "/></g></g><g clip-rule="nonzero" clip-path="url(#23fa7f833f)"><g clip-rule="nonzero" clip-path="url(#8445a23c83)"><path style=" stroke:none;fill-rule:nonzero;fill:#10b666;fill-opacity:1;" d="M 188.097656 -151.066406 L 929.890625 -151.066406 L 929.890625 590.726562 L 188.097656 590.726562 Z M 188.097656 -151.066406 "/></g></g></g></svg>