<svg xmlns="http://www.w3.org/2000/svg" xmlns:xlink="http://www.w3.org/1999/xlink" width="1280" zoomAndPan="magnify" viewBox="0 0 960 599.999999" height="800" preserveAspectRatio="xMidYMid meet" version="1.2"><defs><clipPath id="b370572a63"><path d="M 324.527344 0 L 931.640625 0 L 931.640625 338.496094 L 324.527344 338.496094 Z M 324.527344 0 "/></clipPath><clipPath id="d0f4d1e57f"><path d="M 628.085938 -268.613281 C 460.433594 -268.613281 324.527344 -132.707031 324.527344 34.941406 C 324.527344 202.589844 460.433594 338.496094 628.085938 338.496094 C 795.734375 338.496094 931.640625 202.589844 931.640625 34.941406 C 931.640625 -132.707031 795.734375 -268.613281 628.085938 -268.613281 Z M 628.085938 -268.613281 "/></clipPath><clipPath id="ea72fc8a16"><path d="M 0 471.136719 L 960 471.136719 L 960 600 L 0 600 Z M 0 471.136719 "/></clipPath><clipPath id="9fbfbd8a5b"><path d="M 458.421875 449.554688 L 501.578125 449.554688 L 501.578125 492.714844 L 458.421875 492.714844 Z M 458.421875 449.554688 "/></clipPath><clipPath id="a25f23e3f9"><path d="M 480 449.554688 C 468.082031 449.554688 458.421875 459.21875 458.421875 471.136719 C 458.421875 483.050781 468.082031 492.714844 480 492.714844 C 491.917969 492.714844 501.578125 483.050781 501.578125 471.136719 C 501.578125 459.21875 491.917969 449.554688 480 449.554688 Z M 480 449.554688 "/></clipPath><clipPath id="f5ce77e957"><path d="M 468.457031 459.152344 L 491.582031 459.152344 L 491.582031 480.121094 L 468.457031 480.121094 Z M 468.457031 459.152344 "/></clipPath><clipPath id="b67f778bf7"><path d="M 482.605469 478.558594 L 491.089844 463.710938 C 491.628906 462.765625 491.625 461.609375 491.082031 460.667969 C 490.535156 459.730469 489.53125 459.152344 488.445312 459.152344 L 471.554688 459.152344 C 470.46875 459.152344 469.464844 459.730469 468.917969 460.667969 C 468.375 461.609375 468.371094 462.765625 468.910156 463.710938 L 477.394531 478.558594 C 477.929688 479.496094 478.921875 480.070312 480 480.070312 C 481.078125 480.070312 482.070312 479.496094 482.605469 478.558594 Z M 482.605469 478.558594 "/></clipPath></defs><g id="d56b488e86"><rect x="0" width="960" y="0" height="599.999999" style="fill:#ffffff;fill-opacity:1;stroke:none;"/><rect x="0" width="960" y="0" height="599.999999" style="fill:#00bf63;fill-opacity:1;stroke:none;"/><g clip-rule="nonzero" clip-path="url(#b370572a63)"><g clip-rule="nonzero" clip-path="url(#d0f4d1e57f)"><path style=" stroke:none;fill-rule:nonzero;fill:#10b666;fill-opacity:1;" d="M 324.527344 -268.613281 L 931.640625 -268.613281 L 931.640625 338.496094 L 324.527344 338.496094 Z M 324.527344 -268.613281 "/></g></g><g clip-rule="nonzero" clip-path="url(#ea72fc8a16)"><path style=" stroke:none;fill-rule:nonzero;fill:#f2f7f7;fill-opacity:1;" d="M -59.933594 471.136719 L 1019.816406 471.136719 L 1019.816406 600 L -59.933594 600 Z M -59.933594 471.136719 "/></g><g clip-rule="nonzero" clip-path="url(#9fbfbd8a5b)"><g clip-rule="nonzero" clip-path="url(#a25f23e3f9)"><path style=" stroke:none;fill-rule:nonzero;fill:#f2f7f7;fill-opacity:1;" d="M 458.421875 449.554688 L 501.578125 449.554688 L 501.578125 492.714844 L 458.421875 492.714844 Z M 458.421875 449.554688 "/></g></g><g clip-rule="nonzero" clip-path="url(#f5ce77e957)"><g clip-rule="nonzero" clip-path="url(#b67f778bf7)"><path style=" stroke:none;fill-rule:nonzero;fill:#00bf63;fill-opacity:1;" d="M 466.304688 459.152344 L 493.734375 459.152344 L 493.734375 483.117188 L 466.304688 483.117188 Z M 466.304688 459.152344 "/></g></g></g></svg>